<?xml version="1.0" standalone="no"?>
<!DOCTYPE svg PUBLIC "-//W3C//DTD SVG 20010904//EN"
 "http://www.w3.org/TR/2001/REC-SVG-20010904/DTD/svg10.dtd">
<svg version="1.0" xmlns="http://www.w3.org/2000/svg"
 width="1536.000000pt" height="1024.000000pt" viewBox="0 0 1536.000000 1024.000000"
 preserveAspectRatio="xMidYMid meet">

<g transform="translate(0.000000,1024.000000) scale(0.100000,-0.100000)"
fill="#000000" stroke="none">
<path d="M0 5120 l0 -5120 7680 0 7680 0 0 5120 0 5120 -7680 0 -7680 0 0
-5120z m6427 2600 c23 0 41 -8 57 -25 13 -14 29 -25 37 -25 19 0 79 -61 79
-80 0 -8 12 -33 27 -55 38 -57 31 -155 -12 -155 -11 0 -15 -11 -15 -38 0 -35
-3 -39 -42 -56 -24 -9 -51 -21 -60 -26 -10 -6 -34 -14 -55 -19 -21 -6 -63 -16
-94 -24 -31 -8 -96 -28 -145 -45 -49 -18 -98 -33 -109 -35 -11 -1 -25 -6 -32
-10 -6 -4 -24 -8 -40 -9 -15 -1 -33 -6 -40 -11 -7 -5 -16 -6 -21 -3 -5 3 -21
-2 -36 -10 -16 -7 -46 -14 -68 -14 -37 0 -40 -2 -34 -22 40 -136 40 -252 1
-387 -14 -47 -25 -89 -25 -93 0 -11 14 -10 47 4 15 6 32 10 37 9 12 -3 112 19
162 35 23 7 66 27 95 43 90 51 101 54 185 55 75 0 86 -3 139 -35 172 -102 262
-282 190 -380 -14 -19 -37 -59 -51 -89 -14 -30 -36 -78 -49 -105 -13 -28 -41
-98 -63 -156 -22 -58 -53 -133 -70 -167 -32 -65 -29 -72 20 -53 13 5 46 12 73
15 28 4 64 13 81 21 44 20 292 20 399 -1 67 -13 151 -51 185 -84 19 -19 57
-53 83 -74 102 -83 141 -185 98 -254 -12 -18 -31 -36 -44 -41 -12 -5 -39 -20
-59 -35 -21 -14 -58 -32 -83 -41 -47 -16 -156 -21 -169 -7 -4 4 -22 8 -39 9
-18 1 -97 10 -177 19 -365 42 -859 16 -1210 -66 -296 -68 -410 -96 -525 -127
-97 -27 -151 -36 -215 -37 -78 -1 -90 2 -150 32 -36 19 -73 41 -82 49 -9 8
-54 34 -100 57 -76 39 -83 45 -86 75 -3 25 3 38 25 59 30 28 90 72 99 72 3 0
13 9 22 19 10 11 31 21 47 23 17 1 35 6 42 11 7 5 16 6 21 3 5 -3 33 -1 63 5
30 5 65 10 79 9 14 0 34 4 45 9 19 9 131 36 185 45 14 2 44 9 67 15 l42 11 5
58 c16 160 32 258 57 361 16 63 26 117 24 121 -2 4 -33 13 -67 20 -106 22
-197 117 -198 206 0 17 3 34 8 38 4 4 12 31 17 59 8 41 14 53 30 54 160 19
288 43 323 62 19 10 27 46 38 169 2 24 6 48 10 53 11 19 60 214 60 239 -1 17
-6 24 -16 21 -73 -18 -104 -22 -174 -20 -112 2 -174 32 -291 144 -49 47 -97
85 -106 85 -12 0 -18 12 -22 48 -7 56 10 88 51 98 15 4 43 15 62 26 19 10 42
18 52 18 9 0 18 4 20 10 2 5 32 12 68 15 84 6 152 16 165 23 11 7 19 8 75 15
75 10 121 20 126 28 3 5 18 9 35 9 16 0 29 5 29 11 0 6 7 8 16 5 8 -3 36 -1
62 5 26 6 61 13 77 16 17 3 32 8 35 13 3 4 21 10 40 14 19 4 42 8 50 9 8 2 24
8 35 14 11 6 38 16 60 22 22 7 49 16 60 21 52 21 175 60 192 60 10 0 25 6 31
13 16 15 127 36 166 31 16 -2 44 -4 63 -4z m-2501 -118 c52 -24 86 -47 164
-108 77 -62 120 -113 145 -174 24 -61 23 -239 -4 -510 -11 -113 -23 -245 -26
-295 -3 -49 -7 -108 -10 -130 -3 -22 -7 -121 -10 -220 -6 -211 -5 -181 -5
-324 -1 -63 -2 -117 -5 -120 -2 -4 -4 -142 -5 -306 -1 -165 -2 -336 -2 -380
-3 -527 -2 -879 5 -1065 10 -283 9 -524 -3 -610 -14 -98 -63 -220 -121 -298
-18 -24 -60 -30 -100 -14 -64 26 -244 241 -256 306 -3 17 -12 42 -20 55 -10
15 -13 36 -10 58 3 18 1 46 -4 62 -7 19 -6 49 1 92 15 88 27 181 34 264 21
269 26 337 31 475 10 256 14 340 25 450 6 58 14 204 19 325 9 241 6 1736 -4
1880 -11 160 -30 255 -54 270 -6 3 -11 18 -11 33 0 15 -11 45 -25 67 -17 28
-24 55 -25 89 0 45 2 48 21 43 15 -4 27 1 39 16 10 12 41 33 69 47 28 14 51
28 51 33 0 13 57 7 96 -11z m4565 -82 c11 -6 38 -31 60 -55 23 -24 48 -47 57
-50 41 -14 159 -205 182 -295 30 -112 17 -298 -30 -445 -77 -242 -152 -531
-175 -680 -1 -11 -8 -49 -14 -85 -7 -36 -16 -96 -21 -135 -6 -38 -12 -82 -16
-97 -3 -16 -3 -28 -1 -28 6 0 113 215 174 350 59 130 135 270 231 430 160 267
246 386 339 473 58 55 190 157 202 157 4 0 19 8 32 18 40 29 92 42 145 36 56
-6 123 -33 143 -57 7 -10 19 -17 26 -17 26 0 116 -116 160 -205 49 -101 85
-207 114 -340 23 -107 49 -287 52 -370 6 -132 3 -714 -3 -770 -7 -60 -14 -166
-23 -345 -8 -170 -17 -238 -50 -390 -36 -164 -57 -256 -62 -270 -3 -8 -7 -24
-8 -35 -4 -24 -25 -102 -35 -130 -4 -11 -15 -38 -23 -60 -9 -22 -22 -60 -28
-85 -7 -25 -16 -49 -21 -55 -4 -5 -8 -16 -8 -24 0 -28 -154 -319 -203 -383
-121 -157 -289 -337 -394 -421 -38 -30 -81 -66 -98 -81 -16 -14 -38 -29 -47
-32 -10 -3 -18 -9 -18 -13 0 -4 -18 -16 -40 -26 -29 -13 -44 -15 -52 -7 -7 7
-22 2 -51 -19 -35 -25 -42 -27 -47 -14 -4 13 -13 9 -45 -20 -22 -19 -56 -38
-75 -41 -19 -4 -46 -15 -59 -25 -13 -11 -34 -19 -46 -19 -12 0 -42 -7 -65 -15
-63 -22 -79 -19 -95 17 l-13 33 76 70 c133 122 335 327 393 400 92 115 219
295 219 310 0 8 5 15 10 15 6 0 10 9 10 20 0 11 5 20 11 20 6 0 9 8 7 18 -3
12 2 24 13 31 11 6 19 18 19 26 0 8 3 15 8 15 9 0 42 58 42 75 0 7 4 15 8 17
5 2 31 55 59 118 146 334 222 670 254 1115 6 94 14 186 16 205 2 19 6 195 8
390 3 269 0 384 -11 475 -39 326 -86 521 -142 592 l-17 22 -75 -61 c-215 -173
-400 -399 -499 -611 -67 -143 -179 -496 -196 -617 -1 -8 -5 -22 -8 -30 -18
-49 -35 -109 -31 -112 2 -3 -3 -38 -12 -79 -8 -41 -17 -92 -19 -114 -5 -35
-34 -319 -40 -386 -4 -36 -48 -117 -92 -167 -94 -106 -215 -42 -322 170 -65
131 -73 185 -78 558 -5 376 4 479 77 910 14 82 56 298 82 415 10 50 25 125 33
168 8 42 17 83 22 90 4 6 10 125 13 264 5 249 6 252 29 277 26 28 50 32 82 16z
m-4016 -886 c44 -15 87 -32 95 -38 8 -6 38 -22 65 -36 136 -67 235 -244 222
-397 -3 -36 -10 -70 -16 -76 -6 -6 -11 -19 -11 -28 0 -26 -74 -87 -122 -100
-47 -12 -90 -3 -140 32 -14 11 -31 19 -37 19 -6 0 -16 10 -22 22 -6 12 -31 45
-54 74 -57 69 -132 224 -146 297 -16 88 -16 190 0 220 23 44 58 46 166 11z
m-1037 -263 c99 -101 114 -122 142 -189 52 -127 60 -244 30 -407 -14 -76 -47
-185 -61 -201 -6 -7 -8 -18 -4 -24 4 -6 -12 -47 -34 -90 -22 -44 -40 -88 -39
-98 2 -23 -34 -102 -48 -102 -6 0 -21 -9 -33 -19 -13 -11 -37 -23 -54 -27 -18
-3 -35 -11 -39 -17 -4 -7 -11 -7 -21 2 -10 8 -17 9 -22 2 -20 -34 -133 83
-191 199 -34 67 -36 77 -27 116 6 24 7 47 2 51 -4 4 7 40 25 78 47 100 126
292 126 305 0 6 5 18 10 28 13 23 80 274 80 301 0 35 28 91 44 91 9 0 16 8 16
18 0 12 9 18 30 19 23 2 39 -7 68 -36z m3056 -1347 c17 -9 54 -33 81 -53 28
-21 77 -57 111 -82 107 -78 183 -183 184 -254 0 -50 -29 -147 -54 -180 -24
-31 -118 -229 -142 -300 -83 -242 -125 -387 -115 -400 43 -52 67 -154 42 -170
-5 -3 -12 -19 -16 -35 -4 -17 -10 -28 -15 -25 -5 3 -12 -1 -17 -8 -23 -38
-163 -73 -189 -47 -15 15 -79 15 -239 0 -77 -7 -156 -13 -175 -14 -51 -4 -291
-45 -303 -53 -6 -4 -23 -8 -37 -9 -106 -11 -130 -16 -130 -31 0 -18 -67 -140
-83 -150 -6 -4 -26 -6 -44 -5 -19 2 -33 -2 -33 -9 0 -13 -64 -4 -84 12 -6 5
-26 20 -43 35 -18 14 -57 65 -87 113 -88 143 -104 203 -111 431 -10 336 -30
499 -85 682 -33 110 -45 193 -36 242 3 17 23 50 43 71 30 32 44 39 77 41 23 1
49 -2 59 -8 10 -5 28 -11 39 -13 12 -3 60 -23 107 -47 90 -44 119 -48 157 -23
13 8 34 15 46 15 13 0 32 6 43 13 11 7 40 19 65 26 25 7 58 17 74 22 16 5 42
9 57 9 15 0 31 5 34 10 4 6 10 8 15 5 5 -3 17 -1 27 4 10 5 52 17 93 26 41 9
92 23 113 31 20 8 47 14 60 14 12 0 33 6 47 13 14 8 47 19 72 25 26 7 69 25
95 40 49 29 92 47 128 55 36 9 137 -3 169 -19z"/>
<path d="M6000 6249 c-30 -11 -102 -26 -160 -34 -146 -20 -164 -26 -168 -56
-2 -13 -14 -58 -26 -99 -13 -41 -29 -95 -36 -120 -7 -25 -19 -63 -26 -85 -7
-22 -25 -80 -40 -130 -15 -49 -29 -96 -32 -104 -6 -15 10 -13 93 7 22 6 96 22
165 37 69 15 136 31 150 36 14 5 36 11 49 14 14 2 28 8 32 12 6 7 94 343 121
465 6 26 8 54 5 63 -9 21 -60 19 -127 -6z"/>
<path d="M6170 4559 c-100 -12 -196 -34 -420 -98 -97 -28 -315 -94 -318 -97
-7 -5 -5 -521 2 -532 4 -7 4 -21 1 -32 -8 -25 0 -25 97 -4 40 9 111 22 158 29
150 24 325 55 340 62 8 3 26 7 40 9 62 9 83 20 86 44 3 28 9 54 53 260 18 80
36 170 41 200 6 30 14 71 20 90 5 19 10 45 10 57 0 25 4 25 -110 12z"/>
</g>
</svg>
